<mxfile host="app.diagrams.net" modified="2024-03-03T18:26:17.888Z" agent="Mozilla/5.0 (Windows NT 10.0; Win64; x64) AppleWebKit/537.36 (KHTML, like Gecko) Chrome/122.0.0.0 Safari/537.36" etag="kOzFTqasT-turKxF-Ps9" version="23.1.6" type="device">
  <diagram name="Page-1" id="YpdA1cYgMWy_JrpsoYTq">
    <mxGraphModel dx="877" dy="482" grid="1" gridSize="10" guides="1" tooltips="1" connect="1" arrows="1" fold="1" page="1" pageScale="1" pageWidth="1169" pageHeight="1654" math="1" shadow="0">
      <root>
        <mxCell id="0" />
        <mxCell id="1" parent="0" />
        <mxCell id="VnGuxljCKD0l2wrrKNq1-18" value="" style="endArrow=classic;html=1;rounded=0;entryX=1;entryY=0;entryDx=0;entryDy=0;" edge="1" parent="1" target="VnGuxljCKD0l2wrrKNq1-11">
          <mxGeometry width="50" height="50" relative="1" as="geometry">
            <mxPoint x="500" y="580" as="sourcePoint" />
            <mxPoint x="490" y="490" as="targetPoint" />
          </mxGeometry>
        </mxCell>
        <mxCell id="VnGuxljCKD0l2wrrKNq1-1" value="" style="endArrow=none;html=1;rounded=0;" edge="1" parent="1">
          <mxGeometry width="50" height="50" relative="1" as="geometry">
            <mxPoint x="460" y="570" as="sourcePoint" />
            <mxPoint x="470" y="510" as="targetPoint" />
          </mxGeometry>
        </mxCell>
        <mxCell id="VnGuxljCKD0l2wrrKNq1-4" value="" style="endArrow=none;html=1;rounded=0;" edge="1" parent="1">
          <mxGeometry width="50" height="50" relative="1" as="geometry">
            <mxPoint x="450" y="590" as="sourcePoint" />
            <mxPoint x="460" y="570" as="targetPoint" />
          </mxGeometry>
        </mxCell>
        <mxCell id="VnGuxljCKD0l2wrrKNq1-5" value="" style="endArrow=none;html=1;rounded=0;" edge="1" parent="1">
          <mxGeometry width="50" height="50" relative="1" as="geometry">
            <mxPoint x="430" y="620" as="sourcePoint" />
            <mxPoint x="450" y="590" as="targetPoint" />
          </mxGeometry>
        </mxCell>
        <mxCell id="VnGuxljCKD0l2wrrKNq1-6" value="" style="endArrow=none;html=1;rounded=0;" edge="1" parent="1">
          <mxGeometry width="50" height="50" relative="1" as="geometry">
            <mxPoint x="472" y="618" as="sourcePoint" />
            <mxPoint x="497" y="624" as="targetPoint" />
          </mxGeometry>
        </mxCell>
        <mxCell id="VnGuxljCKD0l2wrrKNq1-7" value="" style="endArrow=none;html=1;rounded=0;" edge="1" parent="1">
          <mxGeometry width="50" height="50" relative="1" as="geometry">
            <mxPoint x="423" y="618" as="sourcePoint" />
            <mxPoint x="448" y="624" as="targetPoint" />
          </mxGeometry>
        </mxCell>
        <mxCell id="VnGuxljCKD0l2wrrKNq1-11" value="" style="ellipse;whiteSpace=wrap;html=1;aspect=fixed;fillColor=#FF0000;strokeColor=#ff0000;" vertex="1" parent="1">
          <mxGeometry x="478" y="616" width="6" height="6" as="geometry" />
        </mxCell>
        <mxCell id="VnGuxljCKD0l2wrrKNq1-17" value="" style="endArrow=classic;html=1;rounded=0;entryX=0;entryY=0.5;entryDx=0;entryDy=0;" edge="1" parent="1" target="VnGuxljCKD0l2wrrKNq1-12">
          <mxGeometry width="50" height="50" relative="1" as="geometry">
            <mxPoint x="459" y="568" as="sourcePoint" />
            <mxPoint x="500" y="580" as="targetPoint" />
          </mxGeometry>
        </mxCell>
        <mxCell id="VnGuxljCKD0l2wrrKNq1-12" value="" style="ellipse;whiteSpace=wrap;html=1;aspect=fixed;fillColor=#FF0000;strokeColor=#ff0000;" vertex="1" parent="1">
          <mxGeometry x="496" y="577" width="6" height="6" as="geometry" />
        </mxCell>
        <mxCell id="VnGuxljCKD0l2wrrKNq1-13" value="" style="ellipse;whiteSpace=wrap;html=1;aspect=fixed;fillColor=#FF0000;strokeColor=#ff0000;" vertex="1" parent="1">
          <mxGeometry x="458" y="567" width="6" height="6" as="geometry" />
        </mxCell>
        <mxCell id="VnGuxljCKD0l2wrrKNq1-22" value="" style="shape=curlyBracket;whiteSpace=wrap;html=1;rounded=1;flipH=1;labelPosition=right;verticalLabelPosition=middle;align=left;verticalAlign=middle;rotation=25;" vertex="1" parent="1">
          <mxGeometry x="492.8" y="580.18" width="14" height="43.79" as="geometry" />
        </mxCell>
        <mxCell id="VnGuxljCKD0l2wrrKNq1-23" value="" style="shape=curlyBracket;whiteSpace=wrap;html=1;rounded=1;flipH=1;labelPosition=right;verticalLabelPosition=middle;align=left;verticalAlign=middle;rotation=-70;" vertex="1" parent="1">
          <mxGeometry x="472.35" y="544.99" width="18.23" height="38.8" as="geometry" />
        </mxCell>
        <mxCell id="VnGuxljCKD0l2wrrKNq1-24" value="&lt;font style=&quot;font-size: 10px;&quot;&gt;$$\vec{hk}$$&lt;/font&gt;" style="text;html=1;align=center;verticalAlign=middle;resizable=0;points=[];autosize=1;strokeColor=none;fillColor=none;rotation=15;" vertex="1" parent="1">
          <mxGeometry x="447" y="535" width="80" height="30" as="geometry" />
        </mxCell>
        <mxCell id="VnGuxljCKD0l2wrrKNq1-25" value="&lt;font style=&quot;font-size: 10px;&quot;&gt;$$\vec{ka}$$&lt;/font&gt;" style="text;html=1;align=center;verticalAlign=middle;resizable=0;points=[];autosize=1;strokeColor=none;fillColor=none;rotation=0;" vertex="1" parent="1">
          <mxGeometry x="477.99999999999994" y="587.07" width="80" height="30" as="geometry" />
        </mxCell>
      </root>
    </mxGraphModel>
  </diagram>
</mxfile>
